<?xml version="1.0" encoding="utf-8"?>
<!-- Generator: Adobe Illustrator 19.1.1, SVG Export Plug-In . SVG Version: 6.00 Build 0)  -->
<svg version="1.1" xmlns="http://www.w3.org/2000/svg" xmlns:xlink="http://www.w3.org/1999/xlink" x="0px" y="0px"
	 viewBox="0 0 491 566.9" style="enable-background:new 0 0 491 566.9;" xml:space="preserve">
<style type="text/css">
	.st0{fill:#FFFFFF;}
	.st1{fill:#7EA1AC;}
	.st2{fill:#B5D1DC;}
	.st3{fill:#F3B75F;}
	.st4{fill:#B6D2DD;}
	.st5{font-family:'NexaBold';}
	.st6{font-size:53.024px;}
	.st7{font-family:'Helvetica';}
	.st8{font-size:15.7581px;}
</style>
<g id="Background">
	<polygon class="st0" points="245.5,547.6 16.8,415.5 16.8,151.4 245.5,19.4 474.2,151.4 474.2,415.5 	"/>
</g>
<g id="Graphique">
	<polygon id="Confidence_interval" class="st4" points="374.8,349 399.9,277.1 425,216.5 450.1,203.9 475.2,181.1 475.2,344 
		450.1,326.1 425,298 399.9,317.9 374.8,349 	"/>
	<path class="st1" d="M81,350.4C81,350.4,81,350.4,81,350.4c-0.5,0-1-0.3-1.2-0.8l-29-79.7l-24.3-1.3c-0.3,0-0.6-0.2-0.8-0.4
		l-25.1-26c-0.5-0.5-0.5-1.3,0-1.8c0.5-0.5,1.3-0.5,1.8,0l24.8,25.6l24.6,1.3c0.5,0,0.9,0.3,1.1,0.8L81,345.6l18.9-51.8
		c0.2-0.4,0.6-0.8,1-0.8l23.2-2.5c0.3,0,0.5,0,0.8,0.2l25.7,14.9l25.7-15.3l25-86.4c0.1-0.4,0.4-0.7,0.8-0.8
		c0.4-0.1,0.8-0.1,1.1,0.2l24.8,19.4l24.8,3.6c0.5,0.1,0.8,0.4,1,0.8l24.4,69.7l23.7-24.9c0.3-0.3,0.8-0.5,1.3-0.3l25.1,7.8
		c0.4,0.1,0.7,0.4,0.8,0.7l18.2,48.4l26.8,18.6l24.6-70.3l25.1-60.6c0.1-0.3,0.3-0.5,0.6-0.6l25-12.6l25-22.7
		c0.5-0.5,1.3-0.4,1.8,0.1c0.5,0.5,0.4,1.3-0.1,1.8L451,204.8c-0.1,0.1-0.2,0.1-0.3,0.2L426,217.5l-24.9,60.2l-18.1,51.9l15.9-32.5
		c0,0,0-0.1,0.1-0.1l25.1-40.2c0.3-0.5,0.9-0.7,1.4-0.5l24.9,7.7l24.9-2.4c0.7-0.1,1.3,0.4,1.4,1.1c0.1,0.7-0.4,1.3-1.1,1.4
		l-25.1,2.4c-0.2,0-0.3,0-0.5,0l-24.2-7.4L401,298.1l-20.3,41.5l18.2-22.6c0.1-0.1,0.1-0.1,0.2-0.2l25.1-19.9
		c0.5-0.4,1.3-0.3,1.7,0.1l25,28l25,17.8c0.6,0.4,0.7,1.2,0.3,1.7c-0.4,0.6-1.2,0.7-1.7,0.3l-25.1-17.9c-0.1-0.1-0.1-0.1-0.2-0.2
		l-24.3-27.2l-24.1,19.1l-25,31c-0.1,0.1-0.1,0.1-0.2,0.2c-0.1,0.1-0.3,0.2-0.4,0.2c-0.2,0.1-0.4,0.1-0.6,0c-0.1,0-0.3-0.1-0.4-0.1
		c0,0-0.1-0.1-0.1-0.1l-28.5-19.7c-0.2-0.1-0.4-0.3-0.5-0.6L327,281.5l-23.8-7.3L278.6,300c-0.3,0.3-0.7,0.5-1.2,0.4
		c-0.4-0.1-0.8-0.4-0.9-0.8l-24.9-70.9l-24.4-3.6c-0.2,0-0.4-0.1-0.6-0.2l-23.7-18.5l-24.6,85.1c-0.1,0.3-0.3,0.6-0.6,0.7L151.2,308
		c-0.4,0.2-0.9,0.2-1.3,0L124,293l-22,2.4l-19.8,54.2C82,350.1,81.6,350.4,81,350.4z"/>
	<g id="Boules">
		<path class="st1" d="M177.5,284.9c-3.4,0-6.1,2.8-6.1,6.1c0,3.4,2.8,6.1,6.1,6.1c3.4,0,6.1-2.8,6.1-6.1
			C183.7,287.7,180.9,284.9,177.5,284.9z"/>
		<path class="st1" d="M150.6,300.5c-3.4,0-6.1,2.8-6.1,6.1s2.8,6.1,6.1,6.1s6.1-2.8,6.1-6.1S154,300.5,150.6,300.5z"/>
		<path class="st1" d="M123.7,284.9c-3.4,0-6.1,2.8-6.1,6.1c0,3.4,2.8,6.1,6.1,6.1s6.1-2.8,6.1-6.1
			C129.9,287.7,127.1,284.9,123.7,284.9z"/>
		<path class="st1" d="M202.6,198c-3.4,0-6.1,2.8-6.1,6.1s2.8,6.1,6.1,6.1s6.1-2.8,6.1-6.1S206,198,202.6,198z"/>
		<path class="st1" d="M26.8,261.2c-3.4,0-6.1,2.8-6.1,6.1c0,3.4,2.8,6.1,6.1,6.1s6.1-2.8,6.1-6.1C33,264,30.2,261.2,26.8,261.2z"/>
		<path class="st1" d="M227.8,217.7c-3.4,0-6.1,2.8-6.1,6.1s2.8,6.1,6.1,6.1s6.1-2.8,6.1-6.1S231.2,217.7,227.8,217.7z"/>
		<path class="st1" d="M52,262.6c-3.4,0-6.1,2.8-6.1,6.1c0,3.4,2.8,6.1,6.1,6.1c3.4,0,6.1-2.8,6.1-6.1
			C58.2,265.3,55.4,262.6,52,262.6z"/>
		<path class="st1" d="M100.9,288.3c-3.4,0-6.1,2.8-6.1,6.1s2.8,6.1,6.1,6.1s6.1-2.8,6.1-6.1S104.3,288.3,100.9,288.3z"/>
		<path class="st1" d="M278,293c-3.4,0-6.1,2.8-6.1,6.1c0,3.4,2.8,6.1,6.1,6.1c3.4,0,6.1-2.8,6.1-6.1C284.2,295.7,281.4,293,278,293
			z"/>
		<path class="st1" d="M425,251.5c-3.4,0-6.1,2.8-6.1,6.1c0,3.4,2.8,6.1,6.1,6.1c3.4,0,6.1-2.8,6.1-6.1
			C431.2,254.3,428.4,251.5,425,251.5z"/>
		<path class="st1" d="M450.2,258.9c-3.4,0-6.1,2.8-6.1,6.1c0,3.4,2.8,6.1,6.1,6.1s6.1-2.8,6.1-6.1
			C456.3,261.7,453.6,258.9,450.2,258.9z"/>
		<path class="st1" d="M474.2,256.4c-3.4,0-6.1,2.8-6.1,6.1c0,3.4,2.8,6.1,6.1,6.1c3.4,0,6.1-2.8,6.1-6.1
			C480.4,259.2,477.6,256.4,474.2,256.4z"/>
		<path class="st1" d="M399.9,291.9c-3.4,0-6.1,2.8-6.1,6.1c0,3.4,2.8,6.1,6.1,6.1c3.4,0,6.1-2.8,6.1-6.1
			C406.1,294.6,403.3,291.9,399.9,291.9z"/>
		<path class="st1" d="M328.1,274.3c-3.4,0-6.1,2.8-6.1,6.1c0,3.4,2.8,6.1,6.1,6.1s6.1-2.8,6.1-6.1
			C334.3,277.1,331.5,274.3,328.1,274.3z"/>
		<path class="st1" d="M303.1,266.6c-3.4,0-6.1,2.8-6.1,6.1s2.8,6.1,6.1,6.1c3.4,0,6.1-2.8,6.1-6.1S306.5,266.6,303.1,266.6z"/>
		<path class="st1" d="M252.8,221.3c-3.4,0-6.1,2.8-6.1,6.1s2.8,6.1,6.1,6.1s6.1-2.8,6.1-6.1S256.2,221.3,252.8,221.3z"/>
		<path class="st1" d="M346,323.1c-3.4,0-6.1,2.8-6.1,6.1c0,3.4,2.8,6.1,6.1,6.1c3.4,0,6.1-2.8,6.1-6.1
			C352.1,325.9,349.4,323.1,346,323.1z"/>
	</g>
</g>
<g id="Hexagone">
	<g>
		<g>
			<g>
				<path class="st4" d="M245.5,0L0,141.7v283.5l245.5,141.7L491,425.2V141.7L245.5,0z M474.2,415.5l-228.7,132l-228.7-132V151.4
					l228.7-132l228.7,132V415.5z"/>
			</g>
		</g>
	</g>
</g>
<g id="Text">
	<text transform="matrix(1 0 0 1 52.5086 381.7217)"><tspan x="0" y="0" class="st1 st5 st6">rjd</tspan><tspan x="67.7" y="0" class="st3 st5 st6">3</tspan><tspan x="102.3" y="0" class="st1 st5 st6">nowcasting</tspan></text>
	<g>
		<text transform="matrix(0.866 -0.5 0.5 0.866 249.8604 532.7183)" class="st1 st7 st8">github.com/rjdverse/rjd3nowcasting</text>
	</g>
</g>
</svg>
